<svg height="39" viewBox="0 0 41 39" width="41" xmlns="http://www.w3.org/2000/svg"><path d="m9.94489465 0c0 15.9565398 10.25717595 28.0354311 25.11641725 30.5774773-2.1492491-1.11711-4.8774357-3.0435176-5.6233143-5.8717343-1.561971-5.9325044 1.5455291-11.6552482 1.6785582-11.895458l.446918-.810285.7413757.4567369c.2391535.1471707 5.8712171 3.6657362 7.2837172 9.0213989 1.0962477 4.167954-.3100194 8.6301065-.6243726 9.5380851.671397.0378044 1.3500177.0567835 2.0358059.0567835v1.9269956c-3.6532837 0-7.1151817-.5065755-10.3254715-1.4595153l-.2100797.3398044c-.1518727.2424615-3.7408648 5.9437723-9.6926766 7.0331175-.3261266.0588835-.6554506.0865934-.983176.0865934-4.4682552 0-8.9764768-5.1626997-9.1795067-5.3999656l-.6090895-.7048705.6074909-.710066c.145478-.171455 3.6369519-4.198049 8.2187119-5.0345414.8285413-.1506203 1.6662057-.180787 2.4913695-.1234256-2.2159372-1.5623758-4.202404-3.4029286-5.9230613-5.4829212.7480468 1.166396 1.1803674 2.1274621 1.2240225 2.2249316l.3814665.8619064-.7677213.476543c-.1372641.0860186-3.0868463 1.8924093-6.40512632 1.8924093-.37667825 0-.75654868-.0240852-1.1396113-.073976-4.41639283-.5952487-7.93418459-5.2058459-8.08102526-5.4036887l-.60651582-.8034137.7501643-.6503007c.17237818-.1496723 4.27434044-3.6368665 9.14721623-2.9882862 1.51890797.2049775 2.84659997 1.2036232 3.91202997 2.3697342-3.7029419-5.3465009-5.8094105-12.00030347-5.8094105-19.4500689zm9.20104015 29.1993568c-2.8711936.5247561-5.3235383 2.5943388-6.4585871 3.6992709 1.4308009 1.4374507 4.8695189 4.5080534 7.7646925 3.9642467 3.8239951-.6979429 6.6120585-3.7460313 7.7918697-5.2683436-1.7121651-1.0321936-5.6080999-3.0411609-9.0979751-2.395174zm13.0737163-14.4284865c-.729418 1.6916181-2.0626985 5.553582-1.0612434 9.3529561.7025132 2.6693733 4.3122356 4.5876681 6.3674605 5.3962616.4170238-1.4852407 1.0896429-4.6265754.3422884-7.4617272-.9177514-3.4864247-4.1523018-6.191322-5.6485055-7.2874905zm-29.42010176 6.2800831c1.13482302 1.2403882 3.50342691 3.4734312 6.12580978 3.8261075 2.14993898.2890225 4.35414518-.5608413 5.51610178-1.1165215-.930523-1.7083295-2.7724157-4.3594228-4.78189842-4.6295212-2.89850718-.397406-5.55440803 1.0442658-6.86001314 1.9199352zm20.44152186-21.0509534.4675907.65566844c.1054835.14825137 2.5851312 3.68183044 2.2623834 7.46606131-.3747023 4.44295605-4.9120641 8.17216575-5.1057128 8.32805895l-.6785576.5502113-.6108592-.620516c-.1621611-.1665918-3.961139-4.0975457-3.5439284-9.01123802.3384916-3.96763463 6.2250967-6.88833948 6.4738487-7.01060865zm-.6486444 2.40717432c-1.7097761.9903803-4.4995767 3.02463365-4.6774816 5.11390812-.2550494 3.01087836 1.4799168 5.67634636 2.4324164 6.89292456 1.1902309-1.1462735 3.5108664-3.7078126 3.7407258-6.44205699.1904999-2.23141239-.8674831-4.46129641-1.4956606-5.56477569z" fill-rule="evenodd"/></svg>